<svg xmlns="http://www.w3.org/2000/svg" xmlns:xlink="http://www.w3.org/1999/xlink" id="Layer_1" viewBox="0 0 273.2 38.92"><defs><style>.cls-1{fill:url(#linear-gradient-2);}.cls-2{fill:#1f314f;}.cls-3{fill:url(#linear-gradient-5);}.cls-4{fill:url(#linear-gradient-3);}.cls-5{fill:url(#linear-gradient);}.cls-6{fill:url(#linear-gradient-4);}</style><linearGradient id="linear-gradient" x1="0" y1="19.85" x2="43.66" y2="19.85" gradientUnits="userSpaceOnUse"><stop offset=".12" stop-color="#80b500"></stop><stop offset=".24" stop-color="#8bc800"></stop><stop offset=".39" stop-color="#97dd00"></stop><stop offset=".5" stop-color="#9ce500"></stop><stop offset=".61" stop-color="#97dd00"></stop><stop offset=".77" stop-color="#8ac700"></stop><stop offset=".88" stop-color="#80b500"></stop></linearGradient><linearGradient id="linear-gradient-2" x1="3.75" y1="24.32" x2="3.75" y2="1.38" gradientUnits="userSpaceOnUse"><stop offset="0" stop-color="#9ce500"></stop><stop offset=".69" stop-color="#dda722"></stop></linearGradient><linearGradient id="linear-gradient-3" x1="39.91" y1="15.38" x2="39.91" y2="37.64" gradientUnits="userSpaceOnUse"><stop offset="0" stop-color="#9ce500"></stop><stop offset=".17" stop-color="#7acc2f"></stop><stop offset=".37" stop-color="#5ab35d"></stop><stop offset=".55" stop-color="#40a082"></stop><stop offset=".72" stop-color="#2e939c"></stop><stop offset=".88" stop-color="#228aac"></stop><stop offset="1" stop-color="#1f88b2"></stop></linearGradient><linearGradient id="linear-gradient-4" x1="43.66" y1="5.27" x2="0" y2="5.27" gradientUnits="userSpaceOnUse"><stop offset="0" stop-color="#ff4949"></stop><stop offset="1" stop-color="#ffc424"></stop></linearGradient><linearGradient id="linear-gradient-5" x1="0" y1="33.65" x2="43.66" y2="33.65" gradientUnits="userSpaceOnUse"><stop offset="0" stop-color="#7723c1"></stop><stop offset="1" stop-color="#2bbbff"></stop></linearGradient></defs><path class="cls-2" d="m56.51.8h13.83c4.13,0,7.73.75,10.81,2.24,3.08,1.49,5.46,3.64,7.15,6.43,1.69,2.79,2.54,6.06,2.54,9.8,0,6.19-1.83,10.88-5.5,14.07-3.67,3.19-8.7,4.78-15.11,4.78h-13.72V.8Zm14.52,28.03c2.74,0,4.85-.85,6.33-2.56,1.48-1.71,2.22-4.04,2.22-6.99,0-2.63-.75-4.82-2.24-6.57-1.49-1.74-3.54-2.62-6.14-2.62h-3.63v18.74h3.47Z"></path><path class="cls-2" d="m91.65.8h27.07v9.29h-16.02v5.13h11.53v8.49h-11.53v5.13h16.02v9.29h-27.07V.8Z"></path><path class="cls-2" d="m133.26,38.2c-2.42-.48-4.38-1.11-5.87-1.9v-9.77c1.96,1.07,4.01,1.87,6.17,2.4,2.15.53,4.17.8,6.06.8,2.74,0,4.11-.73,4.11-2.19,0-.6-.21-1.13-.61-1.58-.41-.44-1.02-.87-1.84-1.28-.82-.41-2.12-1.01-3.9-1.79-3.45-1.49-5.95-3.13-7.5-4.91-1.55-1.78-2.32-3.99-2.32-6.62,0-2.21.61-4.17,1.84-5.9,1.23-1.73,2.94-3.07,5.15-4.03,2.21-.96,4.75-1.44,7.64-1.44,2.35,0,4.43.19,6.25.56,1.82.37,3.58.97,5.29,1.79v9.45c-3.1-1.71-6.27-2.56-9.5-2.56-1.42,0-2.56.21-3.42.61-.85.41-1.28,1.01-1.28,1.79s.38,1.41,1.15,1.9c.77.48,2.22,1.15,4.35,2l1.17.48c2.53,1.03,4.48,2.06,5.85,3.07,1.37,1.01,2.36,2.19,2.96,3.52.6,1.33.91,3.02.91,5.05,0,3.52-1.28,6.28-3.84,8.28-2.56,1.99-6.43,2.99-11.59,2.99-2.39,0-4.79-.24-7.21-.72Z"></path><path class="cls-2" d="m168.61.8h10.63l14.9,37.32h-11.32l-2.78-7.1h-12.23l-2.83,7.1h-11.32L168.61.8Zm8.86,21.84l-3.58-10.46-3.58,10.46h7.15Z"></path><path class="cls-2" d="m210.08.8h10.63l14.9,37.32h-11.32l-2.78-7.1h-12.23l-2.83,7.1h-11.32L210.08.8Zm8.86,21.84l-3.58-10.46-3.58,10.46h7.15Z"></path><path class="cls-2" d="m236.62.8h11.05v14.47l11.48-14.47h13.03l-14.36,18.1,15.38,19.22h-13.03l-12.49-15.59v15.59h-11.05V.8Z"></path><polygon class="cls-5" points="43.66 24.32 7.5 24.32 0 15.38 36.16 15.38 43.66 24.32"></polygon><polygon class="cls-1" points="7.5 1.38 7.5 24.32 0 15.38 0 9.74 7.5 1.38"></polygon><polygon class="cls-4" points="43.66 24.32 43.66 29.18 36.16 37.64 36.16 15.38 43.66 24.32"></polygon><path class="cls-6" d="m43.66.8l-6.92,8.25c-.37.44-.91.69-1.49.69H0L6.92,1.5c.37-.44.91-.69,1.49-.69h35.25Z"></path><path class="cls-3" d="m43.66,29.18l-6.92,8.25c-.37.44-.91.69-1.49.69H0l6.92-8.25c.37-.44.91-.69,1.49-.69h35.25Z"></path></svg>